<?xml version="1.0" encoding="utf-8"?>
<svg xmlns="http://www.w3.org/2000/svg" xmlns:xlink="http://www.w3.org/1999/xlink" xml:space="preserve" width="250" height="260.41666666667" viewBox="0 0 250 260.41666666667"><rect width="231.45833333333" height="231.45833333333" fill="#7cb8f0" x="10.416666666667" y="10.416666666667"/><g transform="scale(10.416666666667)" fill="#000000"><path d="M6.28,0.5c0,0.28-0.22,0.5-0.5,0.5H2C1.45,1,1,1.45,1,2v3.74c0,0.01,0.01,0.02,0.01,0.04c0,0.28-0.22,0.5-0.5,0.5                     c-0.28,0-0.5-0.22-0.5-0.5H0V2c0-1.1,0.9-2,2-2h3.78C6.06,0,6.28,0.22,6.28,0.5z M24,5.78V2c0-1.1-0.9-2-2-2h-3.78v0.01                     c-0.28,0-0.5,0.22-0.5,0.5c0,0.28,0.22,0.5,0.5,0.5c0.01,0,0.03-0.01,0.04-0.01H22c0.55,0,1,0.45,1,1v3.78c0,0.28,0.22,0.5,0.5,0.5                     C23.78,6.28,24,6.06,24,5.78z M18.22,24H22c1.1,0,2-0.9,2-2v-3.78h-0.01c0-0.28-0.22-0.5-0.5-0.5c-0.28,0-0.5,0.22-0.5,0.5                     c0,0.01,0.01,0.03,0.01,0.04V22c0,0.55-0.45,1-1,1h-3.78c-0.28,0-0.5,0.22-0.5,0.5C17.72,23.78,17.94,24,18.22,24z M0,18.22V22                     c0,1.1,0.9,2,2,2h3.78v-0.01c0.28,0,0.5-0.22,0.5-0.5c0-0.28-0.22-0.5-0.5-0.5C5.77,22.99,5.76,23,5.74,23H2c-0.55,0-1-0.45-1-1                     v-3.78c0-0.28-0.22-0.5-0.5-0.5C0.22,17.72,0,17.94,0,18.22z"/></g><g fill="#000000">
<g transform="translate(97,25) scale(1.3733333333333)"><path d="M5.5,6h-5V3c0-1.4,1.1-2.5,2.5-2.5h0c1.4,0,2.5,1.1,2.5,2.5V6z"/></g>
<g transform="translate(113,25) scale(1.3733333333333)"><path d="M5.5,6h-5V3c0-1.4,1.1-2.5,2.5-2.5h0c1.4,0,2.5,1.1,2.5,2.5V6z"/></g>
<g transform="translate(121,25) scale(1.3733333333333)"><path d="M5.5,6h-5V3c0-1.4,1.1-2.5,2.5-2.5h0c1.4,0,2.5,1.1,2.5,2.5V6z"/></g>
<g transform="translate(129,25) scale(1.3733333333333)"><path d="M5.5,6h-5V3c0-1.4,1.1-2.5,2.5-2.5h0c1.4,0,2.5,1.1,2.5,2.5V6z"/></g>
<g transform="translate(145,25) scale(1.3733333333333)"><path d="M5.5,6h-5V3c0-1.4,1.1-2.5,2.5-2.5h0c1.4,0,2.5,1.1,2.5,2.5V6z"/></g>
<g transform="translate(97,33) scale(1.3733333333333)"><path d="M3,5.5L3,5.5C1.6,5.5,0.5,4.4,0.5,3V0h5v3C5.5,4.4,4.4,5.5,3,5.5z"/></g>
<g transform="translate(105,33) scale(1.3733333333333)"><path d="M5.5,6h-5V3c0-1.4,1.1-2.5,2.5-2.5h0c1.4,0,2.5,1.1,2.5,2.5V6z"/></g>
<g transform="translate(113,33) scale(1.3733333333333)"><rect x="0.5" width="5" height="6"/></g>
<g transform="translate(121,33) scale(1.3733333333333)"><path d="M3,5.5L3,5.5C1.6,5.5,0.5,4.4,0.5,3V0h5v3C5.5,4.4,4.4,5.5,3,5.5z"/></g>
<g transform="translate(129,33) scale(1.3733333333333)"><rect x="0.5" width="5" height="6"/></g>
<g transform="translate(137,33) scale(1.3733333333333)"><circle cx="3" cy="3" r="2.5"/></g>
<g transform="translate(145,33) scale(1.3733333333333)"><path d="M3,5.5L3,5.5C1.6,5.5,0.5,4.4,0.5,3V0h5v3C5.5,4.4,4.4,5.5,3,5.5z"/></g>
<g transform="translate(89,41) scale(1.3733333333333)"><path d="M5.5,6h-5V3c0-1.4,1.1-2.5,2.5-2.5h0c1.4,0,2.5,1.1,2.5,2.5V6z"/></g>
<g transform="translate(105,41) scale(1.3733333333333)"><rect x="0.5" width="5" height="6"/></g>
<g transform="translate(113,41) scale(1.3733333333333)"><rect x="0.5" width="5" height="6"/></g>
<g transform="translate(129,41) scale(1.3733333333333)"><path d="M3,5.5L3,5.5C1.6,5.5,0.5,4.4,0.5,3V0h5v3C5.5,4.4,4.4,5.5,3,5.5z"/></g>
<g transform="translate(89,49) scale(1.3733333333333)"><rect x="0.5" width="5" height="6"/></g>
<g transform="translate(97,49) scale(1.3733333333333)"><circle cx="3" cy="3" r="2.5"/></g>
<g transform="translate(105,49) scale(1.3733333333333)"><path d="M3,5.5L3,5.5C1.6,5.5,0.5,4.4,0.5,3V0h5v3C5.5,4.4,4.4,5.5,3,5.5z"/></g>
<g transform="translate(113,49) scale(1.3733333333333)"><rect x="0.5" width="5" height="6"/></g>
<g transform="translate(137,49) scale(1.3733333333333)"><circle cx="3" cy="3" r="2.5"/></g>
<g transform="translate(145,49) scale(1.3733333333333)"><circle cx="3" cy="3" r="2.5"/></g>
<g transform="translate(153,49) scale(1.3733333333333)"><path d="M5.5,6h-5V3c0-1.4,1.1-2.5,2.5-2.5h0c1.4,0,2.5,1.1,2.5,2.5V6z"/></g>
<g transform="translate(89,57) scale(1.3733333333333)"><rect x="0.5" width="5" height="6"/></g>
<g transform="translate(113,57) scale(1.3733333333333)"><path d="M3,5.5L3,5.5C1.6,5.5,0.5,4.4,0.5,3V0h5v3C5.5,4.4,4.4,5.5,3,5.5z"/></g>
<g transform="translate(153,57) scale(1.3733333333333)"><rect x="0.5" width="5" height="6"/></g>
<g transform="translate(89,65) scale(1.3733333333333)"><rect x="0.5" width="5" height="6"/></g>
<g transform="translate(97,65) scale(1.3733333333333)"><circle cx="3" cy="3" r="2.5"/></g>
<g transform="translate(121,65) scale(1.3733333333333)"><path d="M5.5,6h-5V3c0-1.4,1.1-2.5,2.5-2.5h0c1.4,0,2.5,1.1,2.5,2.5V6z"/></g>
<g transform="translate(145,65) scale(1.3733333333333)"><circle cx="3" cy="3" r="2.5"/></g>
<g transform="translate(153,65) scale(1.3733333333333)"><rect x="0.5" width="5" height="6"/></g>
<g transform="translate(89,73) scale(1.3733333333333)"><rect x="0.5" width="5" height="6"/></g>
<g transform="translate(105,73) scale(1.3733333333333)"><path d="M5.5,6h-5V3c0-1.4,1.1-2.5,2.5-2.5h0c1.4,0,2.5,1.1,2.5,2.5V6z"/></g>
<g transform="translate(121,73) scale(1.3733333333333)"><rect x="0.5" width="5" height="6"/></g>
<g transform="translate(137,73) scale(1.3733333333333)"><path d="M5.5,6h-5V3c0-1.4,1.1-2.5,2.5-2.5h0c1.4,0,2.5,1.1,2.5,2.5V6z"/></g>
<g transform="translate(153,73) scale(1.3733333333333)"><path d="M3,5.5L3,5.5C1.6,5.5,0.5,4.4,0.5,3V0h5v3C5.5,4.4,4.4,5.5,3,5.5z"/></g>
<g transform="translate(89,81) scale(1.3733333333333)"><path d="M3,5.5L3,5.5C1.6,5.5,0.5,4.4,0.5,3V0h5v3C5.5,4.4,4.4,5.5,3,5.5z"/></g>
<g transform="translate(105,81) scale(1.3733333333333)"><path d="M3,5.5L3,5.5C1.6,5.5,0.5,4.4,0.5,3V0h5v3C5.5,4.4,4.4,5.5,3,5.5z"/></g>
<g transform="translate(113,81) scale(1.3733333333333)"><path d="M5.5,6h-5V3c0-1.4,1.1-2.5,2.5-2.5h0c1.4,0,2.5,1.1,2.5,2.5V6z"/></g>
<g transform="translate(121,81) scale(1.3733333333333)"><rect x="0.5" width="5" height="6"/></g>
<g transform="translate(137,81) scale(1.3733333333333)"><path d="M3,5.5L3,5.5C1.6,5.5,0.5,4.4,0.5,3V0h5v3C5.5,4.4,4.4,5.5,3,5.5z"/></g>
<g transform="translate(145,81) scale(1.3733333333333)"><circle cx="3" cy="3" r="2.5"/></g>
<g transform="translate(25,89) scale(1.3733333333333)"><path d="M5.5,6h-5V3c0-1.4,1.1-2.5,2.5-2.5h0c1.4,0,2.5,1.1,2.5,2.5V6z"/></g>
<g transform="translate(41,89) scale(1.3733333333333)"><path d="M5.5,6h-5V3c0-1.4,1.1-2.5,2.5-2.5h0c1.4,0,2.5,1.1,2.5,2.5V6z"/></g>
<g transform="translate(49,89) scale(1.3733333333333)"><circle cx="3" cy="3" r="2.5"/></g>
<g transform="translate(57,89) scale(1.3733333333333)"><circle cx="3" cy="3" r="2.5"/></g>
<g transform="translate(65,89) scale(1.3733333333333)"><circle cx="3" cy="3" r="2.5"/></g>
<g transform="translate(73,89) scale(1.3733333333333)"><circle cx="3" cy="3" r="2.5"/></g>
<g transform="translate(97,89) scale(1.3733333333333)"><circle cx="3" cy="3" r="2.5"/></g>
<g transform="translate(113,89) scale(1.3733333333333)"><rect x="0.5" width="5" height="6"/></g>
<g transform="translate(121,89) scale(1.3733333333333)"><rect x="0.5" width="5" height="6"/></g>
<g transform="translate(169,89) scale(1.3733333333333)"><circle cx="3" cy="3" r="2.5"/></g>
<g transform="translate(177,89) scale(1.3733333333333)"><path d="M5.5,6h-5V3c0-1.4,1.1-2.5,2.5-2.5h0c1.4,0,2.5,1.1,2.5,2.5V6z"/></g>
<g transform="translate(185,89) scale(1.3733333333333)"><circle cx="3" cy="3" r="2.5"/></g>
<g transform="translate(193,89) scale(1.3733333333333)"><circle cx="3" cy="3" r="2.5"/></g>
<g transform="translate(201,89) scale(1.3733333333333)"><circle cx="3" cy="3" r="2.5"/></g>
<g transform="translate(25,97) scale(1.3733333333333)"><path d="M3,5.5L3,5.5C1.6,5.5,0.5,4.4,0.5,3V0h5v3C5.5,4.4,4.4,5.5,3,5.5z"/></g>
<g transform="translate(41,97) scale(1.3733333333333)"><path d="M3,5.5L3,5.5C1.6,5.5,0.5,4.4,0.5,3V0h5v3C5.5,4.4,4.4,5.5,3,5.5z"/></g>
<g transform="translate(81,97) scale(1.3733333333333)"><circle cx="3" cy="3" r="2.5"/></g>
<g transform="translate(113,97) scale(1.3733333333333)"><rect x="0.5" width="5" height="6"/></g>
<g transform="translate(121,97) scale(1.3733333333333)"><path d="M3,5.5L3,5.5C1.6,5.5,0.5,4.4,0.5,3V0h5v3C5.5,4.4,4.4,5.5,3,5.5z"/></g>
<g transform="translate(129,97) scale(1.3733333333333)"><path d="M5.5,6h-5V3c0-1.4,1.1-2.5,2.5-2.5h0c1.4,0,2.5,1.1,2.5,2.5V6z"/></g>
<g transform="translate(137,97) scale(1.3733333333333)"><path d="M5.5,6h-5V3c0-1.4,1.1-2.5,2.5-2.5h0c1.4,0,2.5,1.1,2.5,2.5V6z"/></g>
<g transform="translate(153,97) scale(1.3733333333333)"><circle cx="3" cy="3" r="2.5"/></g>
<g transform="translate(177,97) scale(1.3733333333333)"><rect x="0.5" width="5" height="6"/></g>
<g transform="translate(209,97) scale(1.3733333333333)"><path d="M5.5,6h-5V3c0-1.4,1.1-2.5,2.5-2.5h0c1.4,0,2.5,1.1,2.5,2.5V6z"/></g>
<g transform="translate(33,105) scale(1.3733333333333)"><path d="M5.5,6h-5V3c0-1.4,1.1-2.5,2.5-2.5h0c1.4,0,2.5,1.1,2.5,2.5V6z"/></g>
<g transform="translate(49,105) scale(1.3733333333333)"><circle cx="3" cy="3" r="2.5"/></g>
<g transform="translate(73,105) scale(1.3733333333333)"><circle cx="3" cy="3" r="2.5"/></g>
<g transform="translate(89,105) scale(1.3733333333333)"><path d="M5.5,6h-5V3c0-1.4,1.1-2.5,2.5-2.5h0c1.4,0,2.5,1.1,2.5,2.5V6z"/></g>
<g transform="translate(97,105) scale(1.3733333333333)"><path d="M5.5,6h-5V3c0-1.4,1.1-2.5,2.5-2.5h0c1.4,0,2.5,1.1,2.5,2.5V6z"/></g>
<g transform="translate(113,105) scale(1.3733333333333)"><path d="M3,5.5L3,5.5C1.6,5.5,0.5,4.4,0.5,3V0h5v3C5.5,4.4,4.4,5.5,3,5.5z"/></g>
<g transform="translate(129,105) scale(1.3733333333333)"><rect x="0.5" width="5" height="6"/></g>
<g transform="translate(137,105) scale(1.3733333333333)"><path d="M3,5.5L3,5.5C1.6,5.5,0.5,4.4,0.5,3V0h5v3C5.5,4.4,4.4,5.5,3,5.5z"/></g>
<g transform="translate(145,105) scale(1.3733333333333)"><circle cx="3" cy="3" r="2.5"/></g>
<g transform="translate(161,105) scale(1.3733333333333)"><path d="M5.5,6h-5V3c0-1.4,1.1-2.5,2.5-2.5h0c1.4,0,2.5,1.1,2.5,2.5V6z"/></g>
<g transform="translate(177,105) scale(1.3733333333333)"><rect x="0.5" width="5" height="6"/></g>
<g transform="translate(193,105) scale(1.3733333333333)"><circle cx="3" cy="3" r="2.5"/></g>
<g transform="translate(209,105) scale(1.3733333333333)"><path d="M3,5.5L3,5.5C1.6,5.5,0.5,4.4,0.5,3V0h5v3C5.5,4.4,4.4,5.5,3,5.5z"/></g>
<g transform="translate(217,105) scale(1.3733333333333)"><path d="M5.5,6h-5V3c0-1.4,1.1-2.5,2.5-2.5h0c1.4,0,2.5,1.1,2.5,2.5V6z"/></g>
<g transform="translate(25,113) scale(1.3733333333333)"><path d="M5.5,6h-5V3c0-1.4,1.1-2.5,2.5-2.5h0c1.4,0,2.5,1.1,2.5,2.5V6z"/></g>
<g transform="translate(33,113) scale(1.3733333333333)"><path d="M3,5.5L3,5.5C1.6,5.5,0.5,4.4,0.5,3V0h5v3C5.5,4.4,4.4,5.5,3,5.5z"/></g>
<g transform="translate(81,113) scale(1.3733333333333)"><circle cx="3" cy="3" r="2.5"/></g>
<g transform="translate(89,113) scale(1.3733333333333)"><path d="M3,5.5L3,5.5C1.6,5.5,0.5,4.4,0.5,3V0h5v3C5.5,4.4,4.4,5.5,3,5.5z"/></g>
<g transform="translate(97,113) scale(1.3733333333333)"><path d="M3,5.5L3,5.5C1.6,5.5,0.5,4.4,0.5,3V0h5v3C5.5,4.4,4.4,5.5,3,5.5z"/></g>
<g transform="translate(105,113) scale(1.3733333333333)"><path d="M5.5,6h-5V3c0-1.4,1.1-2.5,2.5-2.5h0c1.4,0,2.5,1.1,2.5,2.5V6z"/></g>
<g transform="translate(129,113) scale(1.3733333333333)"><path d="M3,5.5L3,5.5C1.6,5.5,0.5,4.4,0.5,3V0h5v3C5.5,4.4,4.4,5.5,3,5.5z"/></g>
<g transform="translate(153,113) scale(1.3733333333333)"><circle cx="3" cy="3" r="2.5"/></g>
<g transform="translate(161,113) scale(1.3733333333333)"><rect x="0.5" width="5" height="6"/></g>
<g transform="translate(177,113) scale(1.3733333333333)"><rect x="0.5" width="5" height="6"/></g>
<g transform="translate(217,113) scale(1.3733333333333)"><rect x="0.5" width="5" height="6"/></g>
<g transform="translate(25,121) scale(1.3733333333333)"><rect x="0.5" width="5" height="6"/></g>
<g transform="translate(57,121) scale(1.3733333333333)"><circle cx="3" cy="3" r="2.5"/></g>
<g transform="translate(65,121) scale(1.3733333333333)"><path d="M5.5,6h-5V3c0-1.4,1.1-2.5,2.5-2.5h0c1.4,0,2.5,1.1,2.5,2.5V6z"/></g>
<g transform="translate(73,121) scale(1.3733333333333)"><circle cx="3" cy="3" r="2.5"/></g>
<g transform="translate(105,121) scale(1.3733333333333)"><path d="M3,5.5L3,5.5C1.6,5.5,0.5,4.4,0.5,3V0h5v3C5.5,4.4,4.4,5.5,3,5.5z"/></g>
<g transform="translate(121,121) scale(1.3733333333333)"><circle cx="3" cy="3" r="2.5"/></g>
<g transform="translate(137,121) scale(1.3733333333333)"><circle cx="3" cy="3" r="2.5"/></g>
<g transform="translate(161,121) scale(1.3733333333333)"><path d="M3,5.5L3,5.5C1.6,5.5,0.5,4.4,0.5,3V0h5v3C5.5,4.4,4.4,5.5,3,5.5z"/></g>
<g transform="translate(169,121) scale(1.3733333333333)"><circle cx="3" cy="3" r="2.5"/></g>
<g transform="translate(177,121) scale(1.3733333333333)"><rect x="0.5" width="5" height="6"/></g>
<g transform="translate(185,121) scale(1.3733333333333)"><circle cx="3" cy="3" r="2.5"/></g>
<g transform="translate(201,121) scale(1.3733333333333)"><circle cx="3" cy="3" r="2.5"/></g>
<g transform="translate(209,121) scale(1.3733333333333)"><path d="M5.5,6h-5V3c0-1.4,1.1-2.5,2.5-2.5h0c1.4,0,2.5,1.1,2.5,2.5V6z"/></g>
<g transform="translate(217,121) scale(1.3733333333333)"><path d="M3,5.5L3,5.5C1.6,5.5,0.5,4.4,0.5,3V0h5v3C5.5,4.4,4.4,5.5,3,5.5z"/></g>
<g transform="translate(25,129) scale(1.3733333333333)"><rect x="0.5" width="5" height="6"/></g>
<g transform="translate(33,129) scale(1.3733333333333)"><circle cx="3" cy="3" r="2.5"/></g>
<g transform="translate(41,129) scale(1.3733333333333)"><circle cx="3" cy="3" r="2.5"/></g>
<g transform="translate(49,129) scale(1.3733333333333)"><path d="M5.5,6h-5V3c0-1.4,1.1-2.5,2.5-2.5h0c1.4,0,2.5,1.1,2.5,2.5V6z"/></g>
<g transform="translate(65,129) scale(1.3733333333333)"><path d="M3,5.5L3,5.5C1.6,5.5,0.5,4.4,0.5,3V0h5v3C5.5,4.4,4.4,5.5,3,5.5z"/></g>
<g transform="translate(81,129) scale(1.3733333333333)"><circle cx="3" cy="3" r="2.5"/></g>
<g transform="translate(89,129) scale(1.3733333333333)"><circle cx="3" cy="3" r="2.5"/></g>
<g transform="translate(97,129) scale(1.3733333333333)"><circle cx="3" cy="3" r="2.5"/></g>
<g transform="translate(177,129) scale(1.3733333333333)"><rect x="0.5" width="5" height="6"/></g>
<g transform="translate(193,129) scale(1.3733333333333)"><path d="M5.5,6h-5V3c0-1.4,1.1-2.5,2.5-2.5h0c1.4,0,2.5,1.1,2.5,2.5V6z"/></g>
<g transform="translate(209,129) scale(1.3733333333333)"><rect x="0.5" width="5" height="6"/></g>
<g transform="translate(25,137) scale(1.3733333333333)"><rect x="0.5" width="5" height="6"/></g>
<g transform="translate(49,137) scale(1.3733333333333)"><path d="M3,5.5L3,5.5C1.6,5.5,0.5,4.4,0.5,3V0h5v3C5.5,4.4,4.4,5.5,3,5.5z"/></g>
<g transform="translate(73,137) scale(1.3733333333333)"><circle cx="3" cy="3" r="2.5"/></g>
<g transform="translate(105,137) scale(1.3733333333333)"><circle cx="3" cy="3" r="2.5"/></g>
<g transform="translate(113,137) scale(1.3733333333333)"><path d="M5.5,6h-5V3c0-1.4,1.1-2.5,2.5-2.5h0c1.4,0,2.5,1.1,2.5,2.5V6z"/></g>
<g transform="translate(121,137) scale(1.3733333333333)"><circle cx="3" cy="3" r="2.5"/></g>
<g transform="translate(145,137) scale(1.3733333333333)"><path d="M5.5,6h-5V3c0-1.4,1.1-2.5,2.5-2.5h0c1.4,0,2.5,1.1,2.5,2.5V6z"/></g>
<g transform="translate(177,137) scale(1.3733333333333)"><rect x="0.5" width="5" height="6"/></g>
<g transform="translate(185,137) scale(1.3733333333333)"><path d="M5.5,6h-5V3c0-1.4,1.1-2.5,2.5-2.5h0c1.4,0,2.5,1.1,2.5,2.5V6z"/></g>
<g transform="translate(193,137) scale(1.3733333333333)"><path d="M3,5.5L3,5.5C1.6,5.5,0.5,4.4,0.5,3V0h5v3C5.5,4.4,4.4,5.5,3,5.5z"/></g>
<g transform="translate(209,137) scale(1.3733333333333)"><path d="M3,5.5L3,5.5C1.6,5.5,0.5,4.4,0.5,3V0h5v3C5.5,4.4,4.4,5.5,3,5.5z"/></g>
<g transform="translate(217,137) scale(1.3733333333333)"><path d="M5.5,6h-5V3c0-1.4,1.1-2.5,2.5-2.5h0c1.4,0,2.5,1.1,2.5,2.5V6z"/></g>
<g transform="translate(25,145) scale(1.3733333333333)"><rect x="0.5" width="5" height="6"/></g>
<g transform="translate(65,145) scale(1.3733333333333)"><path d="M5.5,6h-5V3c0-1.4,1.1-2.5,2.5-2.5h0c1.4,0,2.5,1.1,2.5,2.5V6z"/></g>
<g transform="translate(97,145) scale(1.3733333333333)"><circle cx="3" cy="3" r="2.5"/></g>
<g transform="translate(113,145) scale(1.3733333333333)"><rect x="0.5" width="5" height="6"/></g>
<g transform="translate(137,145) scale(1.3733333333333)"><circle cx="3" cy="3" r="2.5"/></g>
<g transform="translate(145,145) scale(1.3733333333333)"><rect x="0.5" width="5" height="6"/></g>
<g transform="translate(161,145) scale(1.3733333333333)"><path d="M5.5,6h-5V3c0-1.4,1.1-2.5,2.5-2.5h0c1.4,0,2.5,1.1,2.5,2.5V6z"/></g>
<g transform="translate(177,145) scale(1.3733333333333)"><rect x="0.5" width="5" height="6"/></g>
<g transform="translate(185,145) scale(1.3733333333333)"><rect x="0.5" width="5" height="6"/></g>
<g transform="translate(217,145) scale(1.3733333333333)"><path d="M3,5.5L3,5.5C1.6,5.5,0.5,4.4,0.5,3V0h5v3C5.5,4.4,4.4,5.5,3,5.5z"/></g>
<g transform="translate(25,153) scale(1.3733333333333)"><path d="M3,5.5L3,5.5C1.6,5.5,0.5,4.4,0.5,3V0h5v3C5.5,4.4,4.4,5.5,3,5.5z"/></g>
<g transform="translate(49,153) scale(1.3733333333333)"><circle cx="3" cy="3" r="2.5"/></g>
<g transform="translate(65,153) scale(1.3733333333333)"><path d="M3,5.5L3,5.5C1.6,5.5,0.5,4.4,0.5,3V0h5v3C5.5,4.4,4.4,5.5,3,5.5z"/></g>
<g transform="translate(73,153) scale(1.3733333333333)"><circle cx="3" cy="3" r="2.5"/></g>
<g transform="translate(89,153) scale(1.3733333333333)"><path d="M5.5,6h-5V3c0-1.4,1.1-2.5,2.5-2.5h0c1.4,0,2.5,1.1,2.5,2.5V6z"/></g>
<g transform="translate(113,153) scale(1.3733333333333)"><path d="M3,5.5L3,5.5C1.6,5.5,0.5,4.4,0.5,3V0h5v3C5.5,4.4,4.4,5.5,3,5.5z"/></g>
<g transform="translate(145,153) scale(1.3733333333333)"><path d="M3,5.5L3,5.5C1.6,5.5,0.5,4.4,0.5,3V0h5v3C5.5,4.4,4.4,5.5,3,5.5z"/></g>
<g transform="translate(153,153) scale(1.3733333333333)"><path d="M5.5,6h-5V3c0-1.4,1.1-2.5,2.5-2.5h0c1.4,0,2.5,1.1,2.5,2.5V6z"/></g>
<g transform="translate(161,153) scale(1.3733333333333)"><path d="M3,5.5L3,5.5C1.6,5.5,0.5,4.4,0.5,3V0h5v3C5.5,4.4,4.4,5.5,3,5.5z"/></g>
<g transform="translate(169,153) scale(1.3733333333333)"><circle cx="3" cy="3" r="2.5"/></g>
<g transform="translate(177,153) scale(1.3733333333333)"><path d="M3,5.5L3,5.5C1.6,5.5,0.5,4.4,0.5,3V0h5v3C5.5,4.4,4.4,5.5,3,5.5z"/></g>
<g transform="translate(185,153) scale(1.3733333333333)"><rect x="0.5" width="5" height="6"/></g>
<g transform="translate(201,153) scale(1.3733333333333)"><circle cx="3" cy="3" r="2.5"/></g>
<g transform="translate(89,161) scale(1.3733333333333)"><path d="M3,5.5L3,5.5C1.6,5.5,0.5,4.4,0.5,3V0h5v3C5.5,4.4,4.4,5.5,3,5.5z"/></g>
<g transform="translate(97,161) scale(1.3733333333333)"><path d="M5.5,6h-5V3c0-1.4,1.1-2.5,2.5-2.5h0c1.4,0,2.5,1.1,2.5,2.5V6z"/></g>
<g transform="translate(121,161) scale(1.3733333333333)"><circle cx="3" cy="3" r="2.5"/></g>
<g transform="translate(129,161) scale(1.3733333333333)"><path d="M5.5,6h-5V3c0-1.4,1.1-2.5,2.5-2.5h0c1.4,0,2.5,1.1,2.5,2.5V6z"/></g>
<g transform="translate(137,161) scale(1.3733333333333)"><path d="M5.5,6h-5V3c0-1.4,1.1-2.5,2.5-2.5h0c1.4,0,2.5,1.1,2.5,2.5V6z"/></g>
<g transform="translate(153,161) scale(1.3733333333333)"><rect x="0.5" width="5" height="6"/></g>
<g transform="translate(185,161) scale(1.3733333333333)"><rect x="0.5" width="5" height="6"/></g>
<g transform="translate(193,161) scale(1.3733333333333)"><circle cx="3" cy="3" r="2.5"/></g>
<g transform="translate(97,169) scale(1.3733333333333)"><path d="M3,5.5L3,5.5C1.6,5.5,0.5,4.4,0.5,3V0h5v3C5.5,4.4,4.4,5.5,3,5.5z"/></g>
<g transform="translate(129,169) scale(1.3733333333333)"><rect x="0.5" width="5" height="6"/></g>
<g transform="translate(137,169) scale(1.3733333333333)"><path d="M3,5.5L3,5.5C1.6,5.5,0.5,4.4,0.5,3V0h5v3C5.5,4.4,4.4,5.5,3,5.5z"/></g>
<g transform="translate(153,169) scale(1.3733333333333)"><rect x="0.5" width="5" height="6"/></g>
<g transform="translate(169,169) scale(1.3733333333333)"><circle cx="3" cy="3" r="2.5"/></g>
<g transform="translate(185,169) scale(1.3733333333333)"><rect x="0.5" width="5" height="6"/></g>
<g transform="translate(201,169) scale(1.3733333333333)"><circle cx="3" cy="3" r="2.5"/></g>
<g transform="translate(209,169) scale(1.3733333333333)"><path d="M5.5,6h-5V3c0-1.4,1.1-2.5,2.5-2.5h0c1.4,0,2.5,1.1,2.5,2.5V6z"/></g>
<g transform="translate(217,169) scale(1.3733333333333)"><path d="M5.5,6h-5V3c0-1.4,1.1-2.5,2.5-2.5h0c1.4,0,2.5,1.1,2.5,2.5V6z"/></g>
<g transform="translate(89,177) scale(1.3733333333333)"><path d="M5.5,6h-5V3c0-1.4,1.1-2.5,2.5-2.5h0c1.4,0,2.5,1.1,2.5,2.5V6z"/></g>
<g transform="translate(105,177) scale(1.3733333333333)"><circle cx="3" cy="3" r="2.5"/></g>
<g transform="translate(121,177) scale(1.3733333333333)"><path d="M5.5,6h-5V3c0-1.4,1.1-2.5,2.5-2.5h0c1.4,0,2.5,1.1,2.5,2.5V6z"/></g>
<g transform="translate(129,177) scale(1.3733333333333)"><path d="M3,5.5L3,5.5C1.6,5.5,0.5,4.4,0.5,3V0h5v3C5.5,4.4,4.4,5.5,3,5.5z"/></g>
<g transform="translate(153,177) scale(1.3733333333333)"><rect x="0.5" width="5" height="6"/></g>
<g transform="translate(185,177) scale(1.3733333333333)"><rect x="0.5" width="5" height="6"/></g>
<g transform="translate(193,177) scale(1.3733333333333)"><circle cx="3" cy="3" r="2.5"/></g>
<g transform="translate(209,177) scale(1.3733333333333)"><path d="M3,5.5L3,5.5C1.6,5.5,0.5,4.4,0.5,3V0h5v3C5.5,4.4,4.4,5.5,3,5.5z"/></g>
<g transform="translate(217,177) scale(1.3733333333333)"><rect x="0.5" width="5" height="6"/></g>
<g transform="translate(89,185) scale(1.3733333333333)"><rect x="0.5" width="5" height="6"/></g>
<g transform="translate(97,185) scale(1.3733333333333)"><path d="M5.5,6h-5V3c0-1.4,1.1-2.5,2.5-2.5h0c1.4,0,2.5,1.1,2.5,2.5V6z"/></g>
<g transform="translate(121,185) scale(1.3733333333333)"><path d="M3,5.5L3,5.5C1.6,5.5,0.5,4.4,0.5,3V0h5v3C5.5,4.4,4.4,5.5,3,5.5z"/></g>
<g transform="translate(137,185) scale(1.3733333333333)"><circle cx="3" cy="3" r="2.5"/></g>
<g transform="translate(145,185) scale(1.3733333333333)"><circle cx="3" cy="3" r="2.5"/></g>
<g transform="translate(153,185) scale(1.3733333333333)"><path d="M3,5.5L3,5.5C1.6,5.5,0.5,4.4,0.5,3V0h5v3C5.5,4.4,4.4,5.5,3,5.5z"/></g>
<g transform="translate(161,185) scale(1.3733333333333)"><path d="M5.5,6h-5V3c0-1.4,1.1-2.5,2.5-2.5h0c1.4,0,2.5,1.1,2.5,2.5V6z"/></g>
<g transform="translate(169,185) scale(1.3733333333333)"><path d="M5.5,6h-5V3c0-1.4,1.1-2.5,2.5-2.5h0c1.4,0,2.5,1.1,2.5,2.5V6z"/></g>
<g transform="translate(177,185) scale(1.3733333333333)"><circle cx="3" cy="3" r="2.5"/></g>
<g transform="translate(185,185) scale(1.3733333333333)"><rect x="0.5" width="5" height="6"/></g>
<g transform="translate(201,185) scale(1.3733333333333)"><path d="M5.5,6h-5V3c0-1.4,1.1-2.5,2.5-2.5h0c1.4,0,2.5,1.1,2.5,2.5V6z"/></g>
<g transform="translate(217,185) scale(1.3733333333333)"><rect x="0.5" width="5" height="6"/></g>
<g transform="translate(89,193) scale(1.3733333333333)"><rect x="0.5" width="5" height="6"/></g>
<g transform="translate(97,193) scale(1.3733333333333)"><rect x="0.5" width="5" height="6"/></g>
<g transform="translate(161,193) scale(1.3733333333333)"><path d="M3,5.5L3,5.5C1.6,5.5,0.5,4.4,0.5,3V0h5v3C5.5,4.4,4.4,5.5,3,5.5z"/></g>
<g transform="translate(169,193) scale(1.3733333333333)"><path d="M3,5.5L3,5.5C1.6,5.5,0.5,4.4,0.5,3V0h5v3C5.5,4.4,4.4,5.5,3,5.5z"/></g>
<g transform="translate(185,193) scale(1.3733333333333)"><path d="M3,5.5L3,5.5C1.6,5.5,0.5,4.4,0.5,3V0h5v3C5.5,4.4,4.4,5.5,3,5.5z"/></g>
<g transform="translate(193,193) scale(1.3733333333333)"><path d="M5.5,6h-5V3c0-1.4,1.1-2.5,2.5-2.5h0c1.4,0,2.5,1.1,2.5,2.5V6z"/></g>
<g transform="translate(201,193) scale(1.3733333333333)"><rect x="0.5" width="5" height="6"/></g>
<g transform="translate(209,193) scale(1.3733333333333)"><circle cx="3" cy="3" r="2.5"/></g>
<g transform="translate(217,193) scale(1.3733333333333)"><rect x="0.5" width="5" height="6"/></g>
<g transform="translate(89,201) scale(1.3733333333333)"><path d="M3,5.5L3,5.5C1.6,5.5,0.5,4.4,0.5,3V0h5v3C5.5,4.4,4.4,5.5,3,5.5z"/></g>
<g transform="translate(97,201) scale(1.3733333333333)"><rect x="0.5" width="5" height="6"/></g>
<g transform="translate(113,201) scale(1.3733333333333)"><path d="M5.5,6h-5V3c0-1.4,1.1-2.5,2.5-2.5h0c1.4,0,2.5,1.1,2.5,2.5V6z"/></g>
<g transform="translate(121,201) scale(1.3733333333333)"><circle cx="3" cy="3" r="2.5"/></g>
<g transform="translate(145,201) scale(1.3733333333333)"><path d="M5.5,6h-5V3c0-1.4,1.1-2.5,2.5-2.5h0c1.4,0,2.5,1.1,2.5,2.5V6z"/></g>
<g transform="translate(193,201) scale(1.3733333333333)"><rect x="0.5" width="5" height="6"/></g>
<g transform="translate(201,201) scale(1.3733333333333)"><path d="M3,5.5L3,5.5C1.6,5.5,0.5,4.4,0.5,3V0h5v3C5.5,4.4,4.4,5.5,3,5.5z"/></g>
<g transform="translate(217,201) scale(1.3733333333333)"><rect x="0.5" width="5" height="6"/></g>
<g transform="translate(97,209) scale(1.3733333333333)"><path d="M3,5.5L3,5.5C1.6,5.5,0.5,4.4,0.5,3V0h5v3C5.5,4.4,4.4,5.5,3,5.5z"/></g>
<g transform="translate(113,209) scale(1.3733333333333)"><rect x="0.5" width="5" height="6"/></g>
<g transform="translate(137,209) scale(1.3733333333333)"><circle cx="3" cy="3" r="2.5"/></g>
<g transform="translate(145,209) scale(1.3733333333333)"><path d="M3,5.5L3,5.5C1.6,5.5,0.5,4.4,0.5,3V0h5v3C5.5,4.4,4.4,5.5,3,5.5z"/></g>
<g transform="translate(153,209) scale(1.3733333333333)"><circle cx="3" cy="3" r="2.5"/></g>
<g transform="translate(161,209) scale(1.3733333333333)"><path d="M5.5,6h-5V3c0-1.4,1.1-2.5,2.5-2.5h0c1.4,0,2.5,1.1,2.5,2.5V6z"/></g>
<g transform="translate(177,209) scale(1.3733333333333)"><path d="M5.5,6h-5V3c0-1.4,1.1-2.5,2.5-2.5h0c1.4,0,2.5,1.1,2.5,2.5V6z"/></g>
<g transform="translate(185,209) scale(1.3733333333333)"><path d="M5.5,6h-5V3c0-1.4,1.1-2.5,2.5-2.5h0c1.4,0,2.5,1.1,2.5,2.5V6z"/></g>
<g transform="translate(193,209) scale(1.3733333333333)"><rect x="0.5" width="5" height="6"/></g>
<g transform="translate(217,209) scale(1.3733333333333)"><rect x="0.5" width="5" height="6"/></g>
<g transform="translate(89,217) scale(1.3733333333333)"><circle cx="3" cy="3" r="2.5"/></g>
<g transform="translate(105,217) scale(1.3733333333333)"><circle cx="3" cy="3" r="2.5"/></g>
<g transform="translate(113,217) scale(1.3733333333333)"><path d="M3,5.5L3,5.5C1.6,5.5,0.5,4.4,0.5,3V0h5v3C5.5,4.4,4.4,5.5,3,5.5z"/></g>
<g transform="translate(161,217) scale(1.3733333333333)"><path d="M3,5.5L3,5.5C1.6,5.5,0.5,4.4,0.5,3V0h5v3C5.5,4.4,4.4,5.5,3,5.5z"/></g>
<g transform="translate(169,217) scale(1.3733333333333)"><circle cx="3" cy="3" r="2.5"/></g>
<g transform="translate(177,217) scale(1.3733333333333)"><path d="M3,5.5L3,5.5C1.6,5.5,0.5,4.4,0.5,3V0h5v3C5.5,4.4,4.4,5.5,3,5.5z"/></g>
<g transform="translate(185,217) scale(1.3733333333333)"><path d="M3,5.5L3,5.5C1.6,5.5,0.5,4.4,0.5,3V0h5v3C5.5,4.4,4.4,5.5,3,5.5z"/></g>
<g transform="translate(193,217) scale(1.3733333333333)"><path d="M3,5.5L3,5.5C1.6,5.5,0.5,4.4,0.5,3V0h5v3C5.5,4.4,4.4,5.5,3,5.5z"/></g>
<g transform="translate(201,217) scale(1.3733333333333)"><circle cx="3" cy="3" r="2.5"/></g>
<g transform="translate(209,217) scale(1.3733333333333)"><circle cx="3" cy="3" r="2.5"/></g>
<g transform="translate(217,217) scale(1.3733333333333)"><path d="M3,5.5L3,5.5C1.6,5.5,0.5,4.4,0.5,3V0h5v3C5.5,4.4,4.4,5.5,3,5.5z"/></g>
<g transform="translate(25,25)"><g transform="scale(4)"><path d="M4.5,14h5.1C12,14,14,12,14,9.6V4.5C14,2,12,0,9.5,0H4.4C2,0,0,2,0,4.4v5.1C0,12,2,14,4.5,14z M12,4.8v4.4 c0,1.5-1.3,2.8-2.8,2.8H4.8C3.2,12,2,10.8,2,9.2V4.8C2,3.3,3.3,2,4.8,2h4.4C10.8,2,12,3.2,12,4.8z"/></g></g>
<g transform="translate(169,25)"><g transform="scale(4)"><path d="M4.5,14h5.1C12,14,14,12,14,9.6V4.5C14,2,12,0,9.5,0H4.4C2,0,0,2,0,4.4v5.1C0,12,2,14,4.5,14z M12,4.8v4.4 c0,1.5-1.3,2.8-2.8,2.8H4.8C3.2,12,2,10.8,2,9.2V4.8C2,3.3,3.3,2,4.8,2h4.4C10.8,2,12,3.2,12,4.8z"/></g></g>
<g transform="translate(25,169)"><g transform="scale(4)"><path d="M4.5,14h5.1C12,14,14,12,14,9.6V4.5C14,2,12,0,9.5,0H4.4C2,0,0,2,0,4.4v5.1C0,12,2,14,4.5,14z M12,4.8v4.4 c0,1.5-1.3,2.8-2.8,2.8H4.8C3.2,12,2,10.8,2,9.2V4.8C2,3.3,3.3,2,4.8,2h4.4C10.8,2,12,3.2,12,4.8z"/></g></g>
<g transform="translate(41,41)"><g transform="scale(4)"><path d="M6,1.7v2.7C6,5.2,5.2,6,4.3,6H1.7C0.7,6,0,5.3,0,4.3V1.7C0,0.8,0.8,0,1.7,0h2.7C5.3,0,6,0.7,6,1.7z"/></g></g>
<g transform="translate(185,41)"><g transform="scale(4)"><path d="M6,1.7v2.7C6,5.2,5.2,6,4.3,6H1.7C0.7,6,0,5.3,0,4.3V1.7C0,0.8,0.8,0,1.7,0h2.7C5.3,0,6,0.7,6,1.7z"/></g></g>
<g transform="translate(41,185)"><g transform="scale(4)"><path d="M6,1.7v2.7C6,5.2,5.2,6,4.3,6H1.7C0.7,6,0,5.3,0,4.3V1.7C0,0.8,0.8,0,1.7,0h2.7C5.3,0,6,0.7,6,1.7z"/></g></g>
</g></svg>
